<svg xmlns="http://www.w3.org/2000/svg" xmlns:xlink="http://www.w3.org/1999/xlink" version="1.1" x="0px" y="0px" viewBox="0 0 255.261 313.61" style="enable-background:new 0 0 255.261 250.888;" xml:space="preserve"><g><polygon points="149.297,1.999 223.963,1.999 223.963,106.666 189.629,106.666 189.629,112.834 229.296,112.834 229.296,107.167    225.963,107.167 225.963,0 147.296,0 147.296,89.834 149.297,89.834  "/><rect x="165.018" y="46.709" transform="matrix(0.7068 -0.7074 0.7074 0.7068 20.9175 145.8244)" width="42.75" height="1.933"/><rect x="167.342" y="42.908" transform="matrix(0.7074 -0.7068 0.7068 0.7074 22.4198 141.9042)" width="30.5" height="1.933"/><rect x="174.944" y="50.51" transform="matrix(0.7071 -0.7071 0.7071 0.7071 19.3069 149.5642)" width="30.499" height="1.934"/><rect x="94.232" y="169.834" width="59.397" height="5"/><rect x="168.629" y="169.834" width="85.334" height="5"/><path d="M88.232,128.967c-10.011,4.243-19.915,6.969-28.526,8.718c0.636,6.168-19.951,23.266-25.565,17.242v83.598   c0,6.83,5.537,12.363,12.363,12.363c6.828,0,12.365-5.533,12.365-12.363v-90.271h4.635v90.271c0,6.83,5.537,12.363,12.363,12.363   c6.828,0,12.365-5.533,12.365-12.363v-98V128.967z"/><path d="M46.128,119.167c-0.002-1.934-1.565-3.497-3.5-3.502c-1.932,0.005-3.497,1.57-3.499,3.502   c0.002,1.933,1.567,3.495,3.499,3.5C44.563,122.662,46.126,121.1,46.128,119.167z"/><path d="M53.294,128.499c1.935-0.004,3.496-1.567,3.501-3.498c-0.005-1.934-1.569-3.498-3.501-3.501   c-1.932,0.003-3.496,1.569-3.498,3.501C49.798,126.933,51.362,128.495,53.294,128.499z"/><path d="M61.186,58.705c4.81,0,9.266-1.515,12.923-4.086c5.79-4.07,9.577-10.798,9.577-18.414c0-12.427-10.072-22.5-22.5-22.5   c-12.426,0-22.5,10.073-22.5,22.5c0,7.617,3.789,14.346,9.581,18.416C51.923,57.191,56.376,58.705,61.186,58.705z"/><path d="M0,185.778l1.76,1.401l11.04-13.879l0.177,17.732l2.249-0.021l-0.204-20.504l3.528-4.436l1.727-2.17   c0.213,0.225,0.438,0.441,0.688,0.64c0.684,0.544,1.446,0.915,2.237,1.149c0.617,0.183,1.25,0.29,1.882,0.29   c0.002,0,0.005,0,0.008,0c1.055,0,2.101-0.262,3.05-0.756c0.8-0.416,1.532-0.994,2.13-1.744c0.97-1.218,1.441-2.678,1.441-4.121   c0-1.945-0.859-3.882-2.497-5.188c-0.479-0.38-1.001-0.661-1.538-0.891c0.076-0.526,0.101-1.068,0.068-1.62   c-0.391-6.65-0.567-12.707-0.567-18.223c-0.035-24.214,3.495-37.817,6.964-44.918v33.063v2.08c1.355,1.018,3.533,2.593,6.176,4.283   l0.416-3.625c-2.101-0.772-3.604-2.785-3.604-5.156c0-3.039,2.463-5.5,5.5-5.5c3.038,0,5.498,2.463,5.498,5.5   c0,3.012-2.418,5.451-5.419,5.494l-0.512,4.458c1.282,0.778,2.64,1.556,4.042,2.297l3.28-2.425   c-1.059-1.002-1.723-2.417-1.723-3.99c0-3.039,2.461-5.502,5.499-5.502c3.039,0,5.502,2.463,5.502,5.502   c0,3.039-2.463,5.499-5.502,5.499c-0.69,0-1.35-0.133-1.959-0.365l-3.101,2.292c1.2,0.58,2.418,1.119,3.636,1.593   c10.209-1.622,23.331-4.707,36.362-10.507v-1.928v-33.02c0.592,1.216,1.19,2.61,1.779,4.237c2.819,7.813,5.191,20.631,5.182,40.641   c0,5.513-0.178,11.57-0.565,18.223c-0.257,4.41,3.109,8.194,7.521,8.451c0.158,0.009,0.316,0.014,0.473,0.014   c4.205,0,7.733-3.281,7.98-7.534c0.404-6.932,0.592-13.298,0.592-19.153c-0.041-30.184-4.861-46.889-11.435-56.934   c-3.284-4.985-7.128-8.183-10.678-9.953c-3.391-1.711-6.369-2.106-8.178-2.133c-0.134-0.008-0.265-0.02-0.399-0.02h-4.921   C75.192,76.679,61.187,89.68,61.187,89.68S47.183,76.679,46.792,64.403h-4.923c-0.122,0-0.24,0.013-0.361,0.018   c-1.805,0.022-4.805,0.412-8.219,2.133c-5.38,2.666-11.178,8.502-15.236,18.842c-4.106,10.379-6.863,25.385-6.876,48.043   c0,4.572,0.118,9.467,0.362,14.688c-2.561,0.046-4.759,1.556-5.814,3.723c-0.428,0.877-0.674,1.857-0.674,2.896   c0,0.054,0.003,0.088,0.003,0.107c0.024,2.519,1.486,4.704,3.607,5.789c0.905,0.463,1.929,0.729,3.015,0.73   c0.017,0,0.036,0,0.059,0c0.322-0.004,0.637-0.037,0.946-0.085l0.029,2.92l0.055,5.522L0,185.778z M27.969,155.737   c1.145,0.913,1.74,2.258,1.74,3.623c0,1.011-0.324,2.021-1.003,2.877c-0.916,1.146-2.261,1.742-3.623,1.745   c-1.012,0-2.02-0.327-2.874-1.006c-0.945-0.753-1.492-1.794-1.668-2.895c3.008-0.295,5.483-2.23,6.588-4.862   C27.42,155.362,27.704,155.526,27.969,155.737z M11.725,159.375c-0.007-0.001-0.014-0.002-0.021-0.002   c-0.009,0-0.018,0.001-0.027,0.002c-2.531,0-4.601-2.044-4.623-4.581c-0.002-0.042-0.002-0.047-0.002-0.047   c0-2.531,2.04-4.598,4.581-4.623c0.006,0,0.006,0,0.011,0c0.043,0.825,0.079,1.633,0.129,2.475c0.135,2.298,1.232,4.306,2.87,5.671   C13.849,158.939,12.841,159.363,11.725,159.375z M14.97,165.273l-0.048-4.754c0.547-0.308,1.046-0.69,1.481-1.135   c0.657,0.305,1.359,0.521,2.094,0.638c0.065,0.648,0.233,1.284,0.487,1.891l-2.948,3.705l-1.05,1.321L14.97,165.273z"/><path d="M120.285,129.917h5.666V146c0,2.391,1.679,4.381,3.92,4.875c-0.061,0.179-0.102,0.357-0.102,0.539   c0,3.641,12.436,6.63,28.333,6.968v22.593l-30.751,9.901v5.959h4v-3.044l26.751-8.615v1.908h6v-1.907l26.749,8.614v3.044h4.002   l-0.003-5.959l-30.748-9.9v-22.594c15.897-0.338,28.333-3.327,28.333-6.968c0-0.182-0.041-0.36-0.102-0.538   c2.24-0.496,3.918-2.487,3.92-4.875v-16.084h5.666c1.656,0,3-1.343,3-3v-3c0-1.657-1.344-3-3-3h-10.166   c-0.831,0-1.582,0.338-2.125,0.883c-0.541,0.543-0.875,1.291-0.875,2.117v3c0,0.826,0.334,1.574,0.875,2.117   c0.543,0.545,1.294,0.883,2.125,0.883h0.5l-0.002,16.084c0,0.107-0.029,0.205-0.061,0.302c-1.142-2.077-6.355-3.874-13.809-4.978   c-4.713,3.855-10.73,6.173-17.279,6.173c-6.55,0-12.567-2.317-17.28-6.173c-7.456,1.104-12.67,2.9-13.811,4.98   c-0.031-0.098-0.061-0.196-0.061-0.305v-16.083h0.501c1.657,0,3-1.343,3-3v-3c0-1.657-1.343-3-3-3h-10.167c-1.656,0-3,1.343-3,3v3   C117.285,128.574,118.629,129.917,120.285,129.917z"/><circle cx="161.103" cy="120.165" r="25.333"/><path d="M231.66,127.316l0.047,0.06c0.001,0.002,0.002,0.004,0.004,0.006c0.002,0.002,0.003,0.004,0.005,0.005l13.096,16.727   c1.021,1.305,2.907,1.533,4.212,0.513l1.574-1.233c1.305-1.021,1.534-2.907,0.513-4.211l-8.492-10.847   c2.149-1.925,2.954-4.85,2.245-7.51l6.011-3.251c1.306-0.706,1.816-2.294,1.213-3.628c0.106-0.06,0.214-0.117,0.321-0.182   c1.326-0.817,2.803-1.898,2.853-3.49c0.003-0.821-0.472-1.625-1.411-2.338c-0.725-0.547-1.711-0.797-2.848-0.799   c-3.156,0.008-7.607,1.938-11.072,6.279l0.785,0.622c3.274-4.126,7.525-5.909,10.287-5.899c0.992-0.003,1.771,0.227,2.24,0.592   c0.797,0.617,1.017,1.124,1.02,1.543c0.048,0.822-1.084,1.894-2.365,2.631c-0.127,0.075-0.254,0.146-0.38,0.216   c-0.856-0.856-2.198-1.1-3.317-0.494l-6.786,3.669c-2.578-1.514-5.924-1.398-8.421,0.557c-3.219,2.521-3.813,7.143-1.373,10.398   C231.635,127.272,231.644,127.296,231.66,127.316z M234.842,119.215c1.953-1.531,4.789-1.186,6.318,0.768   c1.529,1.955,1.185,4.789-0.77,6.32c-1.953,1.529-4.788,1.184-6.318-0.771C232.543,123.58,232.889,120.744,234.842,119.215z"/><path d="M216.765,146.865v-10h-10v10h4.53c0,0.951,0,2.092,0,3.469c0.042,6.555,6.993,10.853,13.7,10.855   c3.23,0,6.455-0.997,8.879-3.281c2.429-2.284,4.004-5.839,4.002-10.801c0-2.047-0.265-4.336-0.843-6.884   c-0.446-1.967-0.764-3.827-0.965-5.59l-0.992,0.114c0.204,1.798,0.525,3.698,0.981,5.694c0.564,2.488,0.818,4.705,0.818,6.665   c-0.04,9.481-5.827,13.035-11.881,13.083c-3.156,0.002-6.365-1.025-8.754-2.778c-2.389-1.755-3.944-4.196-3.946-7.078   c0-1.377,0-2.519,0-3.469H216.765z M208.952,143.678v-3.625c0-0.553,0.448-1,1-1h3.625c0.552,0,1,0.447,1,1v3.625   c0,0.552-0.448,1-1,1h-3.625C209.4,144.678,208.952,144.229,208.952,143.678z"/></g></svg>
