<svg enable-background="new 0 0 100 100" viewBox="0 0 100 100" xmlns="http://www.w3.org/2000/svg"><path d="m71.3295441 47.174408c-.0297089-.2383003-.0727997-.5081177-.1331482-.7647591-.3711929-1.3718834-1.2617264-2.4476967-2.4428406-2.8531456l-.2856827-.0988464c.0069809-.0433502-2.1441803-.7795906-3.2699127-1.1312523 0 0-1.2815056-.4264297-2.5994949-.86092-4.5733833-8.5603676-10.0355339-17.1165981-11.9528923-20.067297-.9553719 1.4702606-2.7929993 4.3369427-4.9599724 7.8978062-.0005684.000103-.0010872.0001564-.0016556.0002594-.0480499.0789509-.09972.1659107-.1480827.245533-.3192177.5256367-.645977 1.0678043-.9771271 1.6204109-.1596069.2662544-.3186989.5329208-.480423.8047028-.303299.5097237-.6090317 1.0258484-.9180145 1.5525169-.2529221-.1596565-.4855385-.3167343-.7077179-.4724655.7302475-1.2445145 1.4491272-2.45224 2.1374168-3.5883007-.9614677.1489124-1.8263664.2982883-2.5560951.4469414-.6596146.1343422-1.3374176.6114082-1.6819 1.0800514-.0069733.0015488-.0140533-.002533-.020977.0017567-.3958931 2.1423264-.8479004 4.8125076-.8479004 4.8125076 0 1.0542679.289196 2.0216255.7812462 2.7895393-2.0833702 3.7497177-4.0812798 7.613987-5.629406 11.1273155-.000206.0000496-.0003624.0000496-.0005684.000103-.6161079 1.3994713-1.171196 2.7508392-1.6177254 4.0062561l-.7526207-.3749657c.3948593-1.1021156.8778687-2.2792511 1.3981285-3.4854279-.8142586.1259689-1.557579.2520447-2.1938915.3776016-.6942329.1370277-1.4125443.6300583-1.7610035 1.1074371-.500576 2.3135567-1.0721455 5.1971359-1.0721455 5.1971359 0 2.1150436 1.2445145 3.913456 3.1102543 4.5680084.4477692 5.797642 3.5156022 10.865658 8.0158692 14.0341456 2.9129295 1.985405 6.4162331 3.2849426 10.2736816 3.4309616.1898346.0063095.3768272.0233612.5680542.0237732.0681.0002594.1354256-.0017624.2022858-.002533 5.4965668-.0458298 10.443676-2.4387589 13.8819809-6.2275314.2754517.1376953.5328674.2716217.7659454.4001236-1.0487366 1.1815338-2.2489166 2.2190552-3.5483055 3.1237946 3.357235-.6418915 5.6566887-1.1751785 5.9499626-1.4754791.0774002-.0360107.1436462-.0995712.16436-.1967545.2285385-1.0720444.7384109-3.3804855.7384109-3.3804855.0454712-.1645203.0943527-.4423981.1340866-.6963043.068512-.4374313.0743484-.8799362.0103836-1.3180923-.0375137-.2573624-.0920258-.5487289-.1683426-.8258896-.1318588-.4162979-.3205566-.8034592-.5497131-1.1602936.9157944-2.2220001 1.4243774-4.6529999 1.4243774-7.2015533 0-1.7617798-.6657104-4.1976929-1.7351151-6.9870262l.0046997-.000515c-.3832321-1.0001183-.83255-2.0562973-1.3104401-3.1348495l1.1891251.6319199c.3718643.868206.6733017 1.5968475.9816132 2.4115257l1.6841202-.1790352-.0045471-.0083733c.0970383-.0051651.1897888-.0748177.2134018-.2044563.1807404-.9926758.5839691-3.130249.5839691-3.130249.0359573-.1523743.0746078-.409687.1060791-.644783.054146-.405041.0587999-.814831.0082094-1.2205431zm-24.5950013-16.6217556c.0458832-.08815.0924377-.1777954.1378555-.2649632.1430206-.2747784.2803078-.5382938.4181633-.8029461 1.9440689-3.7314777 3.355011-6.4151459 3.355011-6.4151459s-2.2603912 5.2613125-4.9169312 11.8800373c-.3490829-.1758347-.6836433-.3501129-1.0042534-.5231056.6963006-1.3453216 1.3754998-2.6540088 2.0101548-3.8738765zm-10.7100791 21.3349056c.0362206-.1010132.088665-.231636.1495323-.377552.0138969-.0334282.0298653-.0705795.045002-.1062317.0591125-.1388855.125248-.2903328.2021332-.4615135.0082169-.0183411.0155525-.0350304.0239754-.0537872.1903496-.4218292.4291687-.9314995.7086983-1.5144882-.0000496 0 0 0-.0000496 0 1.1022148-2.2984734 2.8393478-5.7412186 4.7090149-9.3922462.3600845.1408501.980587.3714523 1.6419067.6099091-2.2091866 5.7127495-4.347847 11.6205482-5.4341469 15.678009-.2978249-.119976-.5725021-.2382469-.8579254-.3573456-.3668022-.1530952-.7242508-.3054199-1.0730743-.4570694-.4028664-.176815-.8026352-.3534203-1.1735191-.5274429.3132742-.9770204.672222-1.9849398 1.0584525-3.0402414zm-2.176117 9.9542579c.8572998.221405 1.7251968.4479218 2.6104012.6840515l.9644127.2849579c.513855 6.8420448 2.9876404 10.544117 2.9876404 10.544117-4.5752946-4.4411545-6.3347474-8.0026397-6.5624543-11.5131264zm33.3939247 12.6124535-.0291901.0046005c.011055-.0061035.0193253-.0121994.0296021-.0182953-.001236.0046006.0011368.0090409-.000412.0136948zm.6267548-6.8941803c.0029984.0053253.0072327.0095139.0101776.0148315.1149139.2071991.2042465.4284973.2757111.6574478.0243378.0811157.0371475.1678696.057045.2512665.0388489.1637955.0774002.3277893.0949631.4990768.0051727.0418015.0052719.0853577.0093536.1276245.0148849.2093124.0130768.4231262-.0035629.6398239l-.3521805 1.6542053-.0046005.021698-.2804642 1.3171616-.0300217.1411133-.1262741.5931168c-.0013962-.0005722-.0028992-.0012436-.0042877-.0018616-.4143448-.4104614-.9906693-.8367386-1.692131-1.2733994-5.4991493-3.4305038-19.0381432-7.5272293-28.5896873-10.1087494l-5.0963287-1.505909c-.1517029-.044487-.292244-.1071625-.4342842-.1673584-.0000515 0-.000103-.000103-.0001545-.000103-.1791382-.0759048-.3486156-.1645164-.511219-.2636719-.0120392-.0072861-.0243893-.0141068-.036272-.021492-.151186-.0945053-.2935352-.1984634-.4289112-.3116722-.0226822-.0188599-.0451069-.0378227-.0673256-.057148-.1223526-.1071625-.2375755-.2203178-.3454628-.3418961-.0316734-.0354462-.0613823-.0722885-.0918159-.1088676-.0935745-.1135216-.1826534-.2297249-.2635155-.3537827-.0376148-.057148-.0705299-.1173439-.1053028-.1766586-.0657749-.1132088-.130518-.2263641-.1858559-.346756-.0392685-.0847397-.0703735-.1740761-.1042175-.2621727-.0401993-.1055069-.0830326-.20895-.1152229-.3189545-.0360661-.1220436-.0598335-.2498741-.0856171-.3769836-.0172577-.0857697-.0408192-.1682854-.0532703-.2561264-.0316219-.2205238-.0496559-.4467354-.0496559-.6789894l.8313656-3.9049835c.1422462.1412125.3057804.2844925.4840412.4291153.0043392.0035133.0073872.0068741.0117283.0103874.0276432.0223732.0615902.0453148.0900593.067791.0146236.0114708.0321388.0232506.0468655.0347214.141058.109642.287077.2196999.4472008.3310471.0117798.008213.0210285.0161209.0329132.024334.0172577.0119362.0373573.0241318.054821.036068.0291424.0198402.0635548.0401993.0931606.0600929.1652393.1109314.3361626.2222824.5189705.3346634.0219078.013485.0400944.0266609.0622616.0401459.0012398.0007744.002634.0015488.0038757.002327.0437126.0266075.0944519.0537338.1390953.0803947.1840973.1100082.3739319.2203712.5735321.3315125.0360641.0200996.0673256.0398903.1038551.0600433.0456238.0251617.0980682.0507889.1444702.076004.2156677.1170845.4391403.2346306.67062.3527489.0914001.046608.1819267.0932121.2756577.1399727.2479591.1237488.5052223.2480164.7689438.3727455.0594215.0281067.1131592.0559044.1733551.0840645.0184975.0086823.0396309.0174141.0581779.0260963.3641663.1696815.737999.3398285 1.1284142.5107536l.008007-.0008278c.6179199.2708015 1.2566071.5423775 1.9336319.8148804 2.5803299 1.0387688 5.5413132 2.0827522 8.613121 3.0812149-.0001526.0003624-.0004654.0004654-.000618.0008278l.0465546.0141068c3.1489525 1.0226974 6.4050713 1.9973412 9.4683571 2.8685417l9.5047798 2.8795471h.0008316c.9904019.290123 1.8133923.9499512 2.3223416 1.8568497zm2.9943542-19.5322533-.6278839 3.4530296c-2.7501678-3.1962318-14.1846581-7.3946991-22.6244278-10.118309-.0854111-.0275917-.1700974-.054924-.25494-.0821533-.357399-.1149139-.7110252-.2280197-1.056179-.3372459-.0054741-.0017586-.0113678-.0036201-.0168419-.0053749l-2.5694809-.8889771v.0000534l-1.4611664-.5055351c-.0469131-.0161209-.0885086-.0422668-.1342888-.0606117-.3294945-.1322746-.6289749-.3213844-.89254-.558754-.0001564-.000103-.0002594-.0002594-.0003624-.0003624-.1311378-.1181679-.2532845-.2483215-.3659248-.389328-.0025291-.0032043-.0046997-.0068741-.0072861-.0100784-.1107254-.1396103-.2125664-.2892456-.3038139-.4490585-.2760201-.4832687-.4613075-1.0498772-.5351448-1.6706886l.0008774-.000103c-.0229378-.1969109-.0377159-.3978043-.0377159-.6044312l.6574936-3.6159935c.1122284.1304131.2438316.2630501.3844757.3966675.0355492.0336876.0737305.0676346.1110382.101532.1220932.1111908.2530251.2232628.3932571.3363686.0304337.0245438.0593681.0488777.0906296.0734749.1768112.1393509.3620987.279583.5643349.4214668.0003624-.0005684.0006714-.0011368.0010338-.0017052.2225418.1560936.4588776.3134804.7092171.4720535.0002594.0001564.0004654.000309.000721.0004654.2391281.1514435.490242.3039207.7534981.4572754.002636.0015526.0051689.0029449.0077515.0044975.2580376.1502533.5273399.3013878.8064613.4530907.0063019.0034103.0118828.0068207.0182381.010231.000103-.0001564.0001564-.0003624.0002594-.0005188 1.9317703 1.0484276 4.3436584 2.1263084 6.9461555 3.1708107.0073357.0029449.0144653.0059433.0218048.0088882.3531609.1416779.7096291.2825813 1.0688362.422863.0061493.0023766.0121422.0048065.0182915.0072327.365406.1426086.7334518.2844429 1.103508.425293-.000103.0003624-.0003624.0004654-.0004654.0007782l.0367889.0130692c2.4904747.9470024 5.0656891 1.849514 7.4883766 2.6562347l1.8752975.6651955 5.6419067 2.0012131h.0006256c.7878571.2702332 1.4427719.8857231 1.8447037 1.7331543.0909424.1919022.1615753.3968239.2181015.6088257.0192719.0751266.0293503.1554222.045105.232666.0307465.1516533.0612335.3035088.0751266.4621353.0040817.0387001.0041885.0790558.0073929.1181679.0117264.1938132.0103302.3918113-.0028458.5924948z"/></svg>