<svg version="1" xmlns="http://www.w3.org/2000/svg" width="933.333" height="933.333" viewBox="0 0 700.000000 700.000000"><path d="M125.9.4c-.2.2-2.4.6-4.9.9-24.3 3.1-50.4 14.3-69.5 29.9-8.1 6.7-20.5 20.1-26.3 28.6C12.3 78.7 5.4 96.2 1.4 119.5c-1 6.5-1.3 49.4-1.3 231C.2 563.1.3 574 2 583.5c6.5 34.7 22 61.8 48.5 84.1 5.7 4.8 17.8 13.4 18.9 13.4.3 0 2.7 1.3 5.3 2.8 5.8 3.5 21.4 9.5 30.3 11.8 17.4 4.4 11.4 4.3 249 4.1l225.5-.2 10.7-2.7c14.4-3.6 23.4-6.9 34.7-12.9 36.4-19.1 62.9-53.4 71.5-92.5.9-3.8 1.9-8.3 2.3-9.9.4-1.7.8-104.7.9-229 .2-214.7.1-226.5-1.6-236-1-5.5-2.3-11.2-2.9-12.8-.6-1.5-.8-2.7-.6-2.7.9 0-5.4-15.9-9.6-24.1-8.5-17-20.1-31.6-35.6-45-8.1-7.1-25.1-17.1-37.8-22.4-3.7-1.5-21.1-6.3-29.5-8.2C578.6.6 126.7-.4 125.9.4zm227.2 107.9c14.5 3.5 25.2 8.2 36.4 16.2 16.1 11.5 27.5 28.1 32.7 47.5 2.8 10.9 3.2 28.3.7 37.8-2.6 10.4-8.3 21.3-14.6 28l-5.3 5.7 3-5c4-6.6 8.5-18.3 10.4-27.4 1.4-6.9 1.6-23.4.3-28.6-.3-1.1-.8-3.4-1.2-5-.4-1.7-1-3.5-1.4-4-.3-.6-.6-1.6-.7-2.3-.1-.7-1.9-4.4-3.8-8.3-4.2-8.3-11.1-17.7-16.3-22.2-2-1.8-4.1-3.7-4.7-4.2-5.9-5.4-17.3-11.3-27.6-14.1-4.5-1.2-10.1-1.7-18.5-1.7-10.8 0-12.9.3-20.8 3-11.7 4.1-18.8 8.4-27.2 16.8-10.4 10.3-17.9 23.9-20.2 36.6-.9 5.4-1 22.9-.1 28.6 2.1 12.6 9 26.4 17.4 34.7 8.9 8.8 19.8 15.4 52.4 31.5 48 23.6 68.2 35.2 89.8 51.4 6.7 5 6.8 5.1 16.6 14.7 20.5 20 32.8 49.6 32.9 79 0 37.8-9.7 61.4-36 87.2-19.5 19.1-41.1 32-65.3 38.9-5.2 1.5-8.8 3-8 3.3 2.7.9 26.3 6.4 31 7.1 2.5.4 5.4.9 6.5 1.1 4.6.9 26.5 1.1 32.3.3 13.6-1.9 25.6-7.9 31.1-15.4 3.8-5.3 5.3-7 4.6-5.7-.4.7-.9 2.7-1.2 4.3-.8 5.2-7.6 21.1-11.6 27.1-13.1 19.7-32 29.1-57.2 28.3-16.6-.4-27-3.1-54.8-14.2-26.7-10.5-39.9-13.6-58.7-13.5-12 0-22.1 1.7-30.6 5-6.5 2.6-16.4 8.5-18.9 11.2-1.1 1.2-2.8 2.6-3.7 3.1-1.5.8-1.4.3.5-3.3 5.8-10.7 11.2-17.2 21.2-25.3 6.6-5.4 21.8-12.9 28-13.9 4.1-.7 8.2-2.6 5.7-2.6-2.1 0-18.4-8-25.3-12.5-30.7-19.8-52.1-53.6-55.6-87.5-4.6-45.6 12.7-85.5 48.9-112.8 11.9-8.9 13.2-8.7 3.9.6-4.8 4.8-10 10.5-11.6 12.7-1.7 2.2-3.3 4.2-3.6 4.5-1.8 1.4-12.2 18.5-15.2 25-5 10.5-7.5 18.3-10.2 31.5-1.1 5.1-1.3 23.7-.4 30.5 4.8 36.6 25.6 66.7 56.4 81.5 37.9 18.4 81.8 10.6 112-19.9 18.3-18.4 28.5-43.9 27.2-68-.6-12-2.4-19.1-7.1-28.5-9.2-18.2-32.8-42.4-56.2-57.4-5.9-3.8-36.1-20.7-37-20.7-.2 0-5.4-3.2-11.6-7.1-36.7-23-56.6-43.2-66.3-67.1-7.9-19.5-10.3-49.1-5.5-68.3 4.2-16.9 10.8-29.1 22.2-40.8 15.2-15.6 35.4-26.1 54.7-28.4 2.5-.3 4.7-.7 4.9-.8 1-.9 24.7.5 30.3 1.8z"/></svg>