<svg xmlns="http://www.w3.org/2000/svg" xmlns:xlink="http://www.w3.org/1999/xlink" version="1.1" x="0px" y="0px" viewBox="0 0 100 125" style="enable-background:new 0 0 100 100;" xml:space="preserve"><g><path d="M75.7,4.6H24.1c-10.6,0-19.2,8.6-19.2,19.2v51.6c0,10.6,8.6,19.2,19.2,19.2h51.6c10.6,0,19.2-8.6,19.2-19.2V23.8   C94.9,13.2,86.3,4.6,75.7,4.6z M89.9,23.8v34.7H62.4c-1.5-0.7-3.2-1.4-5.1-2.2c-0.9-0.4-1.9-0.7-2.9-1.1c-6.3-2.6-8.9-4.2-11.3-7.3   V9.6h32.6C83.5,9.6,89.9,16,89.9,23.8z M72.8,89.6h-13c-1.7-12-3.2-17.7-18.4-23.1c-8.1-2.9-9.5-4.6-15.7-15.2   c-2.9-5-8.2-9-15.9-12V23.8c0-0.1,0-0.2,0-0.3c6.5,3.6,17.9,10.3,21.8,16.3c1.3,2,2.4,3.6,3.3,5.1c4.9,7.8,6.6,10.4,17.5,14.9   c1,0.4,2,0.8,2.9,1.2c2.1,0.8,3.9,1.6,5.5,2.4v0.2h0.3C67.7,66.8,70.2,71.4,72.8,89.6z M43.1,72.4c9.2,3.8,10.4,7.5,11.7,17.2H43.1   V72.4z M9.9,44.7c5.5,2.5,9.5,5.6,11.5,9.1c1.1,1.8,2,3.3,2.9,4.7H9.9V44.7z M24.1,9.6h14v30.8c-0.7-1-1.4-2.2-2.2-3.4   C31.1,29.7,17.5,21.9,11,18.4C13.1,13.2,18.2,9.6,24.1,9.6z M9.9,75.4V63.5h17.9c2.8,3.4,5.5,5.2,10.3,7v19.1h-14   C16.3,89.6,9.9,83.2,9.9,75.4z M77.9,89.4c-2.1-14.5-4.3-21.6-8.2-25.9H90v11.9C89.9,82.5,84.7,88.4,77.9,89.4z"/><path d="M65.6,50c0,0,5.7-10.1,9.1-17.5c3.5-7.4-1.2-14.8-9.1-14.8c-7.4,0-12.6,7.4-9.1,14.8C59.9,39.9,65.6,50,65.6,50z    M65.6,24.4c2,0,3.7,1.7,3.7,3.7c0,2.1-1.7,3.7-3.7,3.7s-3.7-1.7-3.7-3.7S63.6,24.4,65.6,24.4z"/></g></svg>
